<svg width="792" height="114" viewBox="0 0 792 114" fill="none" xmlns="http://www.w3.org/2000/svg">
<path fill-rule="evenodd" clip-rule="evenodd" d="M57 104.5C83.2342 104.5 104.5 83.2342 104.5 57C104.5 30.7658 83.2342 9.5 57 9.5C30.7658 9.5 9.5 30.7658 9.5 57C9.5 83.2342 30.7658 104.5 57 104.5ZM82.5123 41.9663C82.7345 41.7373 82.9083 41.466 83.0233 41.1684C83.1384 40.8708 83.1923 40.5531 83.1818 40.2343C83.1714 39.9154 83.0968 39.6019 82.9625 39.3125C82.8283 39.0231 82.6371 38.7637 82.4004 38.5498C82.1637 38.3359 81.8863 38.1719 81.5848 38.0676C81.2833 37.9633 80.9639 37.9207 80.6456 37.9426C80.3273 37.9644 80.0167 38.0501 79.7322 38.1947C79.4478 38.3392 79.1954 38.5395 78.9901 38.7838L50.54 70.2216L34.8887 55.2805C34.4333 54.8452 33.8237 54.6087 33.1939 54.623C32.5641 54.6372 31.9658 54.9011 31.5305 55.3565C31.0952 55.8119 30.8587 56.4216 30.873 57.0514C30.8872 57.6812 31.1511 58.2795 31.6065 58.7148L49.0247 75.3398L50.7894 77.026L52.4257 75.2162L82.5123 41.9663Z" fill="#FD841C" fill-opacity="0.9"/>
<path fill-rule="evenodd" clip-rule="evenodd" d="M792 56.5C792 82.7342 770.734 104 744.5 104C718.266 104 697 82.7342 697 56.5C697 30.2658 718.266 9 744.5 9C770.734 9 792 30.2658 792 56.5ZM726.027 74.9727C725.582 74.5274 725.332 73.9234 725.332 73.2936C725.332 72.6639 725.582 72.0599 726.027 71.6145L741.142 56.5L726.027 41.3855C725.595 40.9376 725.355 40.3376 725.361 39.7149C725.366 39.0922 725.616 38.4965 726.056 38.0562C726.497 37.6158 727.092 37.3661 727.715 37.3606C728.338 37.3552 728.938 37.5946 729.385 38.0273L744.5 53.1418L759.615 38.0273C760.062 37.5946 760.662 37.3552 761.285 37.3606C761.908 37.3661 762.503 37.6158 762.944 38.0562C763.384 38.4965 763.634 39.0922 763.639 39.7149C763.645 40.3376 763.405 40.9376 762.973 41.3855L747.858 56.5L762.973 71.6145C763.405 72.0624 763.645 72.6624 763.639 73.2851C763.634 73.9078 763.384 74.5035 762.944 74.9438C762.503 75.3842 761.908 75.6339 761.285 75.6394C760.662 75.6448 760.062 75.4054 759.615 74.9727L744.5 59.8582L729.385 74.9727C728.94 75.418 728.336 75.6681 727.706 75.6681C727.077 75.6681 726.473 75.418 726.027 74.9727Z" fill="#FD841C" fill-opacity="0.9"/>
</svg>
