<svg width="96" height="96" viewBox="0 0 96 96" fill="none" xmlns="http://www.w3.org/2000/svg">
<path fill-rule="evenodd" clip-rule="evenodd" d="M48 95.5C74.2342 95.5 95.5 74.2342 95.5 48C95.5 21.7658 74.2342 0.5 48 0.5C21.7658 0.5 0.5 21.7658 0.5 48C0.5 74.2342 21.7658 95.5 48 95.5ZM73.5123 32.9663C73.7345 32.7373 73.9083 32.466 74.0233 32.1684C74.1384 31.8708 74.1923 31.5531 74.1818 31.2343C74.1714 30.9154 74.0968 30.6019 73.9625 30.3125C73.8283 30.0231 73.6371 29.7637 73.4004 29.5498C73.1637 29.3359 72.8863 29.1719 72.5848 29.0676C72.2833 28.9633 71.9639 28.9207 71.6456 28.9426C71.3273 28.9644 71.0167 29.0501 70.7322 29.1947C70.4478 29.3392 70.1954 29.5395 69.9901 29.7838L41.54 61.2216L25.8887 46.2805C25.4333 45.8452 24.8237 45.6087 24.1939 45.623C23.5641 45.6372 22.9658 45.9011 22.5305 46.3565C22.0952 46.8119 21.8587 47.4216 21.873 48.0514C21.8872 48.6812 22.1511 49.2795 22.6065 49.7148L40.0247 66.3398L41.7894 68.026L43.4257 66.2162L73.5123 32.9663Z" fill="#FD841C" fill-opacity="0.9"/>
</svg>
