<svg width="95" height="95" viewBox="0 0 95 95" fill="none" xmlns="http://www.w3.org/2000/svg">
<path fill-rule="evenodd" clip-rule="evenodd" d="M95 47.5C95 73.7342 73.7342 95 47.5 95C21.2658 95 0 73.7342 0 47.5C0 21.2658 21.2658 0 47.5 0C73.7342 0 95 21.2658 95 47.5ZM29.0273 65.9727C28.582 65.5274 28.3319 64.9234 28.3319 64.2936C28.3319 63.6639 28.582 63.0599 29.0273 62.6145L44.1418 47.5L29.0273 32.3855C28.5946 31.9376 28.3552 31.3376 28.3606 30.7149C28.3661 30.0922 28.6158 29.4965 29.0562 29.0562C29.4965 28.6158 30.0922 28.3661 30.7149 28.3606C31.3376 28.3552 31.9376 28.5946 32.3855 29.0273L47.5 44.1418L62.6145 29.0273C63.0624 28.5946 63.6624 28.3552 64.2851 28.3606C64.9078 28.3661 65.5035 28.6158 65.9438 29.0562C66.3842 29.4965 66.6339 30.0922 66.6394 30.7149C66.6448 31.3376 66.4054 31.9376 65.9727 32.3855L50.8582 47.5L65.9727 62.6145C66.4054 63.0624 66.6448 63.6624 66.6394 64.2851C66.6339 64.9078 66.3842 65.5035 65.9438 65.9438C65.5035 66.3842 64.9078 66.6339 64.2851 66.6394C63.6624 66.6448 63.0624 66.4054 62.6145 65.9727L47.5 50.8582L32.3855 65.9727C31.9401 66.418 31.3361 66.6681 30.7064 66.6681C30.0766 66.6681 29.4726 66.418 29.0273 65.9727Z" fill="#FD841C" fill-opacity="0.9"/>
</svg>
