<svg width="296" height="419" viewBox="0 0 296 419" fill="none" xmlns="http://www.w3.org/2000/svg">
<ellipse cx="10.6416" cy="11.1877" rx="10.6416" ry="11.1877" transform="matrix(-0.0789859 0.996876 -0.968954 -0.24724 86.1211 119.104)" fill="#9AD5FD" fill-opacity="0.4"/>
<ellipse cx="3.70142" cy="3.8112" rx="3.70142" ry="3.8112" transform="matrix(-0.0789859 0.996876 -0.968954 -0.24724 28.5132 1.88477)" fill="#9AD5FD" fill-opacity="0.4"/>
<ellipse cx="9.34745" cy="9.40892" rx="9.34745" ry="9.40892" transform="matrix(-0.389694 -0.928986 0.957187 -0.266337 154.093 256.221)" fill="#9AD5FD" fill-opacity="0.4"/>
<ellipse cx="9.34745" cy="9.40892" rx="9.34745" ry="9.40892" transform="matrix(-0.389694 -0.928986 0.957187 -0.266337 96.4385 173.405)" fill="#9AD5FD" fill-opacity="0.4"/>
<ellipse cx="9.34745" cy="9.40892" rx="9.34745" ry="9.40892" transform="matrix(-0.389694 -0.928986 0.957187 -0.266337 88.4331 200.99)" fill="#9AD5FD" fill-opacity="0.4"/>
<ellipse cx="9.34745" cy="9.40892" rx="9.34745" ry="9.40892" transform="matrix(-0.389694 -0.928986 0.957187 -0.266337 114.326 203.887)" fill="#9AD5FD" fill-opacity="0.4"/>
<ellipse cx="10.4874" cy="11.2659" rx="10.4874" ry="11.2659" transform="matrix(-0.389694 -0.928986 0.957187 -0.266337 58.54 175.215)" fill="#9AD5FD" fill-opacity="0.4"/>
<ellipse cx="10.4874" cy="11.2659" rx="10.4874" ry="11.2659" transform="matrix(-0.389694 -0.928986 0.957187 -0.266337 35.8862 145.784)" fill="#9AD5FD" fill-opacity="0.4"/>
<ellipse cx="3.64778" cy="3.83785" rx="3.64778" ry="3.83785" transform="matrix(-0.389694 -0.928986 0.957187 -0.266337 78.519 152.058)" fill="#9AD5FD" fill-opacity="0.4"/>
<ellipse cx="3.64778" cy="3.83785" rx="3.64778" ry="3.83785" transform="matrix(-0.389694 -0.928986 0.957187 -0.266337 120.444 182.274)" fill="#9AD5FD" fill-opacity="0.4"/>
<path d="M117.799 153.998C119.828 153.434 122.109 154.493 122.894 156.365C123.679 158.236 122.671 160.211 120.642 160.776C118.613 161.34 116.332 160.281 115.547 158.409C114.762 156.538 115.77 154.563 117.799 153.998Z" fill="#9AD5FD" fill-opacity="0.4"/>
<ellipse cx="15.1611" cy="16.3418" rx="15.1611" ry="16.3418" transform="matrix(-0.389694 -0.928986 0.957187 -0.266337 123.484 239.897)" fill="#9AD5FD" fill-opacity="0.4"/>
<ellipse cx="10.4874" cy="11.2659" rx="10.4874" ry="11.2659" transform="matrix(-0.389694 -0.928986 0.957187 -0.266337 137.825 206.422)" fill="#9AD5FD" fill-opacity="0.4"/>
<ellipse cx="3.64778" cy="3.83785" rx="3.64778" ry="3.83785" transform="matrix(-0.389694 -0.928986 0.957187 -0.266337 154.717 270.602)" fill="#9AD5FD" fill-opacity="0.4"/>
<ellipse cx="3.64778" cy="3.83785" rx="3.64778" ry="3.83785" transform="matrix(-0.389694 -0.928986 0.957187 -0.266337 137.6 253.859)" fill="#9AD5FD" fill-opacity="0.4"/>
<ellipse cx="3.73794" cy="3.75394" rx="3.73794" ry="3.75394" transform="matrix(0.79534 -0.592493 0.703393 0.721653 151.271 214.476)" fill="#9AD5FD" fill-opacity="0.4"/>
<ellipse cx="9.26557" cy="9.55292" rx="9.26557" ry="9.55292" transform="matrix(0.198847 -1.0025 0.912543 0.361328 205.728 396.312)" fill="#9AD5FD" fill-opacity="0.4"/>
<ellipse cx="9.26557" cy="9.55292" rx="9.26557" ry="9.55292" transform="matrix(0.198847 -1.0025 0.912543 0.361328 204.649 293.754)" fill="#9AD5FD" fill-opacity="0.4"/>
<ellipse cx="9.26557" cy="9.55292" rx="9.26557" ry="9.55292" transform="matrix(0.198847 -1.0025 0.912543 0.361328 182.863 311.323)" fill="#9AD5FD" fill-opacity="0.4"/>
<ellipse cx="9.26557" cy="9.55292" rx="9.26557" ry="9.55292" transform="matrix(0.198847 -1.0025 0.912543 0.361328 202.333 329.47)" fill="#9AD5FD" fill-opacity="0.4"/>
<ellipse cx="10.3955" cy="11.4384" rx="10.3955" ry="11.4384" transform="matrix(0.198847 -1.0025 0.912543 0.361328 172.801 272.118)" fill="#9AD5FD" fill-opacity="0.4"/>
<ellipse cx="10.3955" cy="11.4384" rx="10.3955" ry="11.4384" transform="matrix(0.198847 -1.0025 0.912543 0.361328 170.656 234.352)" fill="#9AD5FD" fill-opacity="0.4"/>
<ellipse cx="3.61583" cy="3.89659" rx="3.61583" ry="3.89659" transform="matrix(0.198847 -1.0025 0.912543 0.361328 201.882 265.452)" fill="#9AD5FD" fill-opacity="0.4"/>
<ellipse cx="3.61583" cy="3.89659" rx="3.61583" ry="3.89659" transform="matrix(0.198847 -1.0025 0.912543 0.361328 219.278 315.609)" fill="#9AD5FD" fill-opacity="0.4"/>
<path d="M232.779 290.981C234.743 291.759 236.013 294.012 235.616 296.014C235.219 298.016 233.305 299.009 231.341 298.231C229.377 297.454 228.107 295.2 228.504 293.198C228.901 291.196 230.815 290.204 232.779 290.981Z" fill="#9AD5FD" fill-opacity="0.4"/>
<ellipse cx="15.0283" cy="16.5919" rx="15.0283" ry="16.5919" transform="matrix(0.198847 -1.0025 0.912543 0.361328 189.853 364.363)" fill="#9AD5FD" fill-opacity="0.4"/>
<ellipse cx="10.3955" cy="11.4384" rx="10.3955" ry="11.4384" transform="matrix(0.198847 -1.0025 0.912543 0.361328 220.056 345.86)" fill="#9AD5FD" fill-opacity="0.4"/>
<ellipse cx="3.61583" cy="3.89659" rx="3.61583" ry="3.89659" transform="matrix(0.198847 -1.0025 0.912543 0.361328 198.275 408.396)" fill="#9AD5FD" fill-opacity="0.4"/>
<ellipse cx="3.61583" cy="3.89659" rx="3.61583" ry="3.89659" transform="matrix(0.198847 -1.0025 0.912543 0.361328 193.612 384.334)" fill="#9AD5FD" fill-opacity="0.4"/>
<ellipse cx="3.73704" cy="3.78559" rx="3.73704" ry="3.78559" transform="matrix(0.975573 0.00271169 0.17155 1.00775 226.542 360.614)" fill="#9AD5FD" fill-opacity="0.4"/>
<ellipse cx="9.4849" cy="9.34359" rx="9.4849" ry="9.34359" transform="matrix(-0.0789859 0.996876 -0.968954 -0.24724 45.4785 64.4961)" fill="#9AD5FD" fill-opacity="0.4"/>
<ellipse cx="9.4849" cy="9.34359" rx="9.4849" ry="9.34359" transform="matrix(-0.0789859 0.996876 -0.968954 -0.24724 43.626 28.751)" fill="#9AD5FD" fill-opacity="0.4"/>
<ellipse cx="9.4849" cy="9.34359" rx="9.4849" ry="9.34359" transform="matrix(-0.0789859 0.996876 -0.968954 -0.24724 65.0605 44.2695)" fill="#9AD5FD" fill-opacity="0.4"/>
<ellipse cx="3.70142" cy="3.8112" rx="3.70142" ry="3.8112" transform="matrix(-0.0789859 0.996876 -0.968954 -0.24724 51.5137 92.2324)" fill="#9AD5FD" fill-opacity="0.4"/>
<ellipse cx="3.70142" cy="3.8112" rx="3.70142" ry="3.8112" transform="matrix(-0.0789859 0.996876 -0.968954 -0.24724 28.4194 44.6768)" fill="#9AD5FD" fill-opacity="0.4"/>
<path d="M17.8811 70.8486C15.8416 70.3282 14.3191 68.2543 14.4806 66.2164C14.642 64.1786 16.4263 62.9484 18.4658 63.4688C20.5053 63.9893 22.0278 66.0631 21.8663 68.101C21.7049 70.1388 19.9206 71.369 17.8811 70.8486Z" fill="#9AD5FD" fill-opacity="0.4"/>
<ellipse cx="10.6416" cy="11.1877" rx="10.6416" ry="11.1877" transform="matrix(-0.0789859 0.996876 -0.968954 -0.24724 24.1304 14.751)" fill="#9AD5FD" fill-opacity="0.4"/>
</svg>
