<svg width="312" height="290" viewBox="0 0 312 290" fill="none" xmlns="http://www.w3.org/2000/svg">
<ellipse cx="7.06063" cy="7.02688" rx="7.06063" ry="7.02688" transform="matrix(0.667064 -0.728726 -0.800582 -0.616664 116.773 189.357)" fill="#9AD5FD" fill-opacity="0.4"/>
<ellipse cx="7.06063" cy="7.02688" rx="7.06063" ry="7.02688" transform="matrix(0.667064 -0.728726 -0.800582 -0.616664 177.604 146.776)" fill="#9AD5FD" fill-opacity="0.4"/>
<ellipse cx="7.06063" cy="7.02688" rx="7.06063" ry="7.02688" transform="matrix(0.667064 -0.728726 -0.800582 -0.616664 176.239 168.665)" fill="#9AD5FD" fill-opacity="0.4"/>
<ellipse cx="7.06063" cy="7.02688" rx="7.06063" ry="7.02688" transform="matrix(0.667064 -0.728726 -0.800582 -0.616664 157.529 163.394)" fill="#9AD5FD" fill-opacity="0.4"/>
<ellipse cx="7.92168" cy="8.41376" rx="7.92168" ry="8.41376" transform="matrix(0.667064 -0.728726 -0.800582 -0.616664 203.47 158.797)" fill="#9AD5FD" fill-opacity="0.4"/>
<ellipse cx="7.92168" cy="8.41376" rx="7.92168" ry="8.41376" transform="matrix(0.667064 -0.728726 -0.800582 -0.616664 226.592 144.278)" fill="#9AD5FD" fill-opacity="0.4"/>
<ellipse cx="2.75537" cy="2.86623" rx="2.75537" ry="2.86623" transform="matrix(0.667064 -0.728726 -0.800582 -0.616664 195.409 136.666)" fill="#9AD5FD" fill-opacity="0.4"/>
<ellipse cx="2.75537" cy="2.86623" rx="2.75537" ry="2.86623" transform="matrix(0.667064 -0.728726 -0.800582 -0.616664 158.706 146.287)" fill="#9AD5FD" fill-opacity="0.4"/>
<path d="M167.642 126.922C166.375 125.946 164.525 126.053 163.509 127.162C162.494 128.271 162.699 129.961 163.966 130.938C165.233 131.914 167.084 131.806 168.099 130.697C169.114 129.588 168.909 127.898 167.642 126.922Z" fill="#9AD5FD" fill-opacity="0.4"/>
<ellipse cx="11.452" cy="12.2046" rx="11.452" ry="12.2046" transform="matrix(0.667064 -0.728726 -0.800582 -0.616664 142.128 186.415)" fill="#9AD5FD" fill-opacity="0.4"/>
<ellipse cx="7.92168" cy="8.41376" rx="7.92168" ry="8.41376" transform="matrix(0.667064 -0.728726 -0.800582 -0.616664 140.573 158.541)" fill="#9AD5FD" fill-opacity="0.4"/>
<ellipse cx="2.75537" cy="2.86623" rx="2.75537" ry="2.86623" transform="matrix(0.667064 -0.728726 -0.800582 -0.616664 112.729 199.41)" fill="#9AD5FD" fill-opacity="0.4"/>
<ellipse cx="2.75537" cy="2.86623" rx="2.75537" ry="2.86623" transform="matrix(0.667064 -0.728726 -0.800582 -0.616664 128.82 192.349)" fill="#9AD5FD" fill-opacity="0.4"/>
<ellipse cx="2.81232" cy="2.81281" rx="2.81232" ry="2.81281" transform="matrix(-0.536456 -0.859563 -0.893747 0.41922 129.213 160.461)" fill="#9AD5FD" fill-opacity="0.4"/>
<ellipse cx="7.03407" cy="7.07444" rx="7.03407" ry="7.07444" transform="matrix(0.149619 -1.01352 -0.978287 -0.00192379 45.7417 274.383)" fill="#9AD5FD" fill-opacity="0.4"/>
<ellipse cx="7.03407" cy="7.07444" rx="7.03407" ry="7.07444" transform="matrix(0.149619 -1.01352 -0.978287 -0.00192379 72.2388 201.736)" fill="#9AD5FD" fill-opacity="0.4"/>
<ellipse cx="7.03407" cy="7.07444" rx="7.03407" ry="7.07444" transform="matrix(0.149619 -1.01352 -0.978287 -0.00192379 82.958 220.404)" fill="#9AD5FD" fill-opacity="0.4"/>
<ellipse cx="7.03407" cy="7.07444" rx="7.03407" ry="7.07444" transform="matrix(0.149619 -1.01352 -0.978287 -0.00192379 64.8804 227.798)" fill="#9AD5FD" fill-opacity="0.4"/>
<ellipse cx="7.89188" cy="8.47071" rx="7.89188" ry="8.47071" transform="matrix(0.149619 -1.01352 -0.978287 -0.00192379 99.7886 195.366)" fill="#9AD5FD" fill-opacity="0.4"/>
<ellipse cx="7.89188" cy="8.47071" rx="7.89188" ry="8.47071" transform="matrix(0.149619 -1.01352 -0.978287 -0.00192379 110.76 169.109)" fill="#9AD5FD" fill-opacity="0.4"/>
<ellipse cx="2.745" cy="2.88563" rx="2.745" ry="2.88563" transform="matrix(0.149619 -1.01352 -0.978287 -0.00192379 81.2656 182.388)" fill="#9AD5FD" fill-opacity="0.4"/>
<ellipse cx="2.745" cy="2.88563" rx="2.745" ry="2.88563" transform="matrix(0.149619 -1.01352 -0.978287 -0.00192379 56.5923 213.14)" fill="#9AD5FD" fill-opacity="0.4"/>
<path d="M53.3988 191.798C51.8397 191.795 50.392 193.038 50.1651 194.575C49.9383 196.111 51.0183 197.36 52.5774 197.363C54.1365 197.366 55.5843 196.123 55.8111 194.586C56.0379 193.05 54.9579 191.801 53.3988 191.798Z" fill="#9AD5FD" fill-opacity="0.4"/>
<ellipse cx="11.4089" cy="12.2872" rx="11.4089" ry="12.2872" transform="matrix(0.149619 -1.01352 -0.978287 -0.00192379 64.7881 256.153)" fill="#9AD5FD" fill-opacity="0.4"/>
<ellipse cx="7.89188" cy="8.47071" rx="7.89188" ry="8.47071" transform="matrix(0.149619 -1.01352 -0.978287 -0.00192379 48.4565 234.438)" fill="#9AD5FD" fill-opacity="0.4"/>
<ellipse cx="2.745" cy="2.88563" rx="2.745" ry="2.88563" transform="matrix(0.149619 -1.01352 -0.978287 -0.00192379 47.8838 285.091)" fill="#9AD5FD" fill-opacity="0.4"/>
<ellipse cx="2.745" cy="2.88563" rx="2.745" ry="2.88563" transform="matrix(0.149619 -1.01352 -0.978287 -0.00192379 57.1631 269.294)" fill="#9AD5FD" fill-opacity="0.4"/>
<ellipse cx="2.81203" cy="2.82321" rx="2.81203" ry="2.82321" transform="matrix(-0.901313 -0.364623 -0.498998 0.89605 40.2485 243.095)" fill="#9AD5FD" fill-opacity="0.4"/>
<ellipse cx="7.0498" cy="7.04635" rx="7.0498" ry="7.04635" transform="matrix(-0.262915 0.984139 0.974636 0.130685 274.881 15.1084)" fill="#9AD5FD" fill-opacity="0.4"/>
<ellipse cx="7.0498" cy="7.04635" rx="7.0498" ry="7.04635" transform="matrix(-0.262915 0.984139 0.974636 0.130685 240.338 83.7383)" fill="#9AD5FD" fill-opacity="0.4"/>
<ellipse cx="7.0498" cy="7.04635" rx="7.0498" ry="7.04635" transform="matrix(-0.262915 0.984139 0.974636 0.130685 231.817 63.8047)" fill="#9AD5FD" fill-opacity="0.4"/>
<ellipse cx="7.0498" cy="7.04635" rx="7.0498" ry="7.04635" transform="matrix(-0.262915 0.984139 0.974636 0.130685 250.599 58.8369)" fill="#9AD5FD" fill-opacity="0.4"/>
<ellipse cx="7.90953" cy="8.43707" rx="7.90953" ry="8.43707" transform="matrix(-0.262915 0.984139 0.974636 0.130685 212.271 86.4492)" fill="#9AD5FD" fill-opacity="0.4"/>
<ellipse cx="7.90953" cy="8.43707" rx="7.90953" ry="8.43707" transform="matrix(-0.262915 0.984139 0.974636 0.130685 198.403 111.072)" fill="#9AD5FD" fill-opacity="0.4"/>
<ellipse cx="2.75114" cy="2.87417" rx="2.75114" ry="2.87417" transform="matrix(-0.262915 0.984139 0.974636 0.130685 229.184 101.759)" fill="#9AD5FD" fill-opacity="0.4"/>
<ellipse cx="2.75114" cy="2.87417" rx="2.75114" ry="2.87417" transform="matrix(-0.262915 0.984139 0.974636 0.130685 257.162 74.4717)" fill="#9AD5FD" fill-opacity="0.4"/>
<path d="M257.91 96.0738C259.457 96.2813 261.035 95.2372 261.435 93.7419C261.834 92.2466 260.904 90.8663 259.357 90.6588C257.81 90.4514 256.232 91.4954 255.832 92.9907C255.433 94.486 256.363 95.8664 257.91 96.0738Z" fill="#9AD5FD" fill-opacity="0.4"/>
<ellipse cx="11.4344" cy="12.2384" rx="11.4344" ry="12.2384" transform="matrix(-0.262915 0.984139 0.974636 0.130685 253.908 30.7051)" fill="#9AD5FD" fill-opacity="0.4"/>
<ellipse cx="7.90953" cy="8.43707" rx="7.90953" ry="8.43707" transform="matrix(-0.262915 0.984139 0.974636 0.130685 267.653 54.3994)" fill="#9AD5FD" fill-opacity="0.4"/>
<ellipse cx="2.75114" cy="2.87417" rx="2.75114" ry="2.87417" transform="matrix(-0.262915 0.984139 0.974636 0.130685 273.97 4.2002)" fill="#9AD5FD" fill-opacity="0.4"/>
<ellipse cx="2.75114" cy="2.87417" rx="2.75114" ry="2.87417" transform="matrix(-0.262915 0.984139 0.974636 0.130685 262.967 18.6611)" fill="#9AD5FD" fill-opacity="0.4"/>
<ellipse cx="2.8122" cy="2.81706" rx="2.8122" ry="2.81706" transform="matrix(0.853159 0.480037 0.598247 -0.825738 276.783 46.8828)" fill="#9AD5FD" fill-opacity="0.4"/>
</svg>
