<svg width="1280" height="419" viewBox="0 0 1280 419" fill="none" xmlns="http://www.w3.org/2000/svg">
<path d="M1279.98 418.87C1014.53 418.838 749.106 418.773 483.66 418.741C327.598 418.741 171.537 418.741 15.4763 418.741C12.7243 418.741 9.95066 418.611 7.19868 418.676C2.47481 418.741 0.242893 415.759 0.242893 408.273C0.242893 366.274 -0.0388054 324.306 0.00453283 282.307C0.00453283 269.214 2.43148 266.816 10.5357 270.737C13.0277 271.936 15.1729 272.682 17.5999 270.543C41.0892 249.77 61.3282 223.261 79.2052 192.636C83.7991 184.761 83.5824 175.395 82.7156 162.53C58.9662 203.136 33.0933 235.867 1.41303 260.172C1.4347 252.362 4.88009 251.52 7.17701 249.478C34.0034 225.853 58.0995 197.367 77.9484 161.331C79.6819 158.187 81.4155 154.817 82.4556 151.09C84.5791 143.539 86.5077 140.201 90.6898 148.951C92.8784 153.52 96.0421 152.192 98.6424 148.821C100.224 146.747 101.264 142.437 103.865 144.122C106.92 146.099 106.487 150.96 106.487 155.011C106.53 178.053 106.443 201.127 106.443 224.168C106.443 239.821 106.552 255.473 106.443 271.094C106.4 278.353 107.938 282.274 113.334 283.376C127.267 286.26 141.309 288.594 154.787 294.978C159.879 297.376 161.245 293.908 161.201 287.135C161.136 278.904 161.288 270.672 161.331 262.441C161.331 256.51 163.216 252.848 167.247 252.848C171.906 252.848 171.169 258.552 171.234 262.83C171.364 274.367 170.996 285.904 171.386 297.408C171.754 308.459 177.041 312.575 183.629 307.26C189.111 302.82 191.321 307.876 192.925 314.001C194.182 318.7 194.745 323.788 196.63 329.718C195.98 311.732 203.434 308.135 212.492 306.644C215.157 306.223 217.606 303.047 220.271 302.658C227.747 301.556 231.496 295.95 232.016 284.737C232.536 273.816 238.278 266.816 241.875 258.26C243.934 253.399 246.491 254.08 247.899 259.492C249.178 264.45 250.11 269.635 251.258 275.047C253.273 271.612 252.147 267.594 252.32 263.964C252.602 257.839 251.778 250.677 256.394 247.696C261.573 244.358 267.293 244.423 272.516 247.663C276.178 249.932 275.679 255.733 275.831 260.659C276.178 272.422 275.051 284.283 277.348 296.015C279.493 287.686 278.496 278.936 278.735 270.348C279.038 258.941 289.677 243.418 297.11 243.645C302.896 243.807 313.383 259.038 313.6 268.112C313.817 278.385 313.644 288.658 315.312 299.158C316.894 275.663 318.302 252.135 320.058 228.673C324.37 170.923 325.908 113.011 324.998 54.9378C324.976 52.8961 324.695 49.9795 325.432 48.9425C333.709 37.5351 331.217 21.4612 333.752 7.6233C334.316 4.54462 334.143 0.202054 336.96 0.00761083C340.535 -0.219239 340.036 4.67424 340.535 8.10941C342.463 21.8176 341.272 36.7574 348.943 48.2295C350.719 50.9193 350.091 57.6924 350.004 62.5535C348.683 130.155 351.825 197.367 358.412 264.515C358.412 251.52 358.304 238.492 358.434 225.497C358.564 212.275 360.947 208.775 369.767 208.321C372.8 208.159 375.834 208.321 378.889 208.321C393.364 208.321 394.838 210.395 394.729 232.562C394.621 251.876 394.209 271.158 393.971 290.473C393.928 293.163 393.234 296.209 395.444 298.316C397.481 294.719 396.485 290.473 396.485 286.682C396.593 250.872 396.528 215.029 396.571 179.219C396.593 163.178 400.255 157.571 410.851 157.247C416.659 157.053 422.444 157.118 428.252 157.247C438.891 157.474 441.578 161.363 441.6 176.983C441.665 207.867 441.448 238.751 441.751 269.635C441.816 276.7 438.913 288.496 445.522 289.306C449.292 289.76 447.234 277.348 447.429 270.802C447.905 255.182 449.292 253.14 459.455 252.881C467.018 252.686 469.683 257.612 469.705 268.501C469.726 282.89 470.528 297.246 471.135 311.635C471.351 316.723 473.128 322.394 476.574 317.274C484.83 304.992 495.729 301.2 505.87 295.658C515.405 290.441 521.581 282.987 523.054 267.561C524.072 256.997 525.849 246.594 527.063 236.061C527.713 230.39 527.323 224.233 533.065 224.006C539.133 223.747 539.653 230.099 539.934 236.321C540.498 248.635 544.723 258.973 547.67 269.992C549.187 275.631 551.809 279.779 556.294 279.941C560.932 280.135 562.882 275.371 564.832 270.024C573.651 245.751 580.174 219.955 587.346 194.613C588.798 189.492 588.625 184.145 588.885 178.83C589.232 171.636 590.683 166.84 595.927 173.094C598.766 176.497 601.215 176.789 603.923 172.803C606.545 168.946 609.622 169.238 609.882 175.006C611.074 200.446 623.122 217.168 632.158 235.705C650.013 272.39 669.581 307.26 695.692 331.89C704.988 340.672 713.786 351.334 725.769 352.922C734.263 354.056 735.216 369.093 741.761 376.19C744.751 371.718 745.423 365.01 747.005 359.274C749.67 349.551 754.047 344.042 760.981 342.292C765.597 341.126 770.06 338.403 774.698 337.626C783.105 336.232 786.334 330.334 786.204 317.339C785.662 264.256 788.458 211.205 787.569 158.09C787.417 149.405 788.197 141.627 792.25 134.044C796.345 126.363 796.779 115.701 797.732 105.914C797.97 103.516 798.144 100.697 800.246 100.34C801.892 100.049 802.824 101.928 802.976 104.099C804.861 131.548 814.937 156.275 812.77 185.474C809.715 226.793 813.312 268.469 812.857 310.015C812.619 333.348 813.225 335.454 828.35 337.399C843.475 339.343 849.803 352.209 853.855 371.686C853.855 346.797 854.028 321.941 853.747 297.084C853.66 288.756 854.57 282.112 859.272 276.538C862.956 272.163 865.361 266.006 865.426 258.358C865.448 254.566 866.011 250.418 869.327 250.418C871.927 250.418 873.314 253.821 873.422 257.126C873.791 267.659 877.583 275.598 881.505 283.668C882.588 285.904 883.303 288.788 883.672 291.543C885.795 307.811 885.882 308.329 895.893 301.718C901.332 298.121 907.811 297.376 911.972 289.89C913.12 287.848 913.965 288.075 915.352 289.76C924.236 300.714 935.439 304.635 945.71 311.343C951.301 315.005 955.028 318.279 951.604 328.519C949.459 334.903 951.669 339.667 955.657 342.584C958.625 344.755 961.637 346.894 964.736 348.579C969.936 351.399 972.342 355.968 970.738 364.588C970.11 368.024 970.348 372.01 970.76 375.574C971.367 380.695 974.054 383.093 977.326 383.482C981.096 383.903 981.768 379.398 982.245 375.315C983.783 362.255 982.851 349.033 983.198 335.876C983.501 324.015 983.198 311.927 989.829 302.788C991.541 300.422 992.212 295.918 991.107 293.584C986.513 283.895 991.107 279.066 994.336 271.515C999.883 258.39 999.363 242.024 999.45 227.052C999.515 214.219 1006.45 213.636 1010.65 208.969C1013.45 205.89 1012.36 214.219 1014.14 216.228C1016.18 211.432 1014.47 202.617 1018.63 201.386C1023.16 200.057 1019.19 209.099 1022.35 211.821C1025.54 208.094 1024 201.872 1025.58 197.4C1026.36 195.228 1026.99 192.571 1029.14 193.446C1030.76 194.094 1030.35 196.687 1030.87 198.469C1034.92 212.469 1037.83 226.663 1036.92 242.251C1036.66 246.659 1039.56 247.663 1042.01 249.024C1050.16 253.497 1058.61 254.955 1067.21 255.149C1098.69 255.895 1130.14 254.858 1161.53 251.001C1168.17 250.191 1170.98 244.163 1167.15 235.187C1163.49 226.566 1165.72 222.775 1170.38 220.312C1178.7 215.904 1182.58 208.742 1182.25 194.71C1181.99 183.594 1195.06 173.84 1202.1 179.576C1220.28 194.353 1238.14 209.974 1256.12 225.27C1258.74 227.506 1260 230.974 1260.19 235.381C1260.26 237.034 1260.39 238.686 1260.32 240.307C1258.48 290.959 1265.14 341.19 1263.62 391.81C1263.36 400.69 1265.55 405.033 1271.72 404.384C1274.47 404.093 1277.25 404.222 1280 404.19V419L1279.98 418.87ZM1201.41 404.028C1217.42 404.028 1230.12 403.866 1242.82 404.093C1249.03 404.19 1252 400.301 1251.85 390.838C1251.68 379.334 1251.53 367.764 1251.85 356.26C1252.35 339.473 1251.74 322.005 1245.57 308.459C1235.73 286.973 1235.77 265.909 1241.71 243.321C1243.44 236.742 1240.09 234.441 1237.79 231.265C1235.88 228.64 1234.19 223.844 1230.96 226.242C1228.04 228.413 1228.64 233.339 1228.6 237.358C1228.51 251.358 1228.6 265.358 1228.54 279.325C1228.47 289.566 1221.97 302.626 1216.4 304.052C1209.47 305.802 1201.6 297.181 1199.54 284.867C1195.47 260.497 1195.38 236.321 1201.8 212.631C1203.05 207.997 1204.98 202.39 1200.15 200.576C1196.01 199.02 1194.56 204.465 1193.87 209.585C1191.57 226.761 1191.68 244.163 1192.35 261.501C1192.74 271.288 1186.52 295.269 1181.12 297.603C1172.76 301.2 1165.44 297.603 1159.97 286.844C1157.63 282.242 1154.25 280.232 1150.42 281.399C1143.03 283.668 1135.45 281.464 1128.14 283.149C1110.83 287.168 1092.71 282.436 1076.05 293.617C1074.21 294.848 1072.24 294.459 1070.39 293.26C1062.64 288.269 1061.16 294.816 1061.16 304.279C1061.16 327.32 1061.16 350.362 1061.16 373.436C1061.16 387.392 1065.89 394.327 1075.36 394.241C1077 394.241 1078.82 394.014 1080.28 394.954C1091.31 402.019 1103.27 400.755 1114.53 400.82C1144.61 401.014 1174.62 405.778 1201.41 403.963V404.028ZM81.6538 195.682C64.4919 226.145 45.7264 252.265 23.8406 273.783C41.7609 276.473 59.0312 277.316 76.3015 278.353C80.3537 278.612 81.6755 275.695 81.6755 270.251C81.6538 246.205 81.6755 222.126 81.6755 195.682H81.6538ZM49.1501 300.13C49.1501 300.455 49.1501 300.779 49.1501 301.103C39.8107 301.103 30.4497 300.811 21.1103 301.2C13.4827 301.524 13.9595 309.982 13.9161 318.084C13.8728 326.478 16.5597 330.269 21.9554 329.88C27.4377 329.491 32.8983 328.714 38.3806 328.163C49.0851 327.061 60.1147 327.644 69.9958 332.246C80.7004 337.204 81.3938 338.598 81.5021 321.908C81.5021 319.445 81.3504 316.95 81.5238 314.519C82.3039 304.052 79.5519 299.418 72.2061 300.001C64.5352 300.649 56.821 300.13 49.1068 300.13H49.1501ZM116.779 329.167C119.033 327.936 121.568 327.903 122.977 330.561C125.62 335.616 128.524 334.579 131.796 332.959C138.839 329.427 146.141 327.709 153.552 327.417C158.471 327.255 159.164 322.394 159.988 316.917C161.05 309.95 157.864 308.88 154.57 307.066C142.176 300.293 129.066 301.103 116.259 298.64C112.987 297.992 109.087 296.955 107.548 302.658C105.663 309.626 105.555 317.501 107.635 324.274C109.195 329.362 112.814 331.403 116.779 329.135V329.167ZM539.544 308.07C539.631 316.302 540.736 320.223 548.06 320.547C558.808 321.066 571.246 311.473 580.391 328.681C581.517 330.788 585.223 332.959 586.48 327.515C587.65 322.329 586.696 317.663 582.796 315.556C571.398 309.399 560.022 303.209 548.58 297.279C542.058 293.908 539.154 297.959 539.544 308.038V308.07Z" fill="url(#paint0_linear_362_310)"/>
<defs>
<linearGradient id="paint0_linear_362_310" x1="640" y1="0" x2="640" y2="419" gradientUnits="userSpaceOnUse">
<stop stop-color="white"/>
<stop offset="1" stop-color="white" stop-opacity="0"/>
</linearGradient>
</defs>
</svg>
