<svg width="200" height="75" viewBox="0 0 200 75" fill="none" xmlns="http://www.w3.org/2000/svg">
<rect width="200" height="69" rx="30" fill="url(#paint0_linear_362_308)"/>
<g filter="url(#filter0_d_362_308)">
<path d="M52.1378 31.2756C52.0241 30.1297 51.5365 29.2396 50.6747 28.6051C49.813 27.9706 48.6435 27.6534 47.1662 27.6534C46.1624 27.6534 45.3149 27.7955 44.6236 28.0795C43.9323 28.3542 43.402 28.7377 43.0327 29.2301C42.6728 29.7225 42.4929 30.2812 42.4929 30.9062C42.474 31.4271 42.5829 31.8816 42.8196 32.2699C43.0658 32.6581 43.402 32.9943 43.8281 33.2784C44.2543 33.553 44.7467 33.7945 45.3054 34.0028C45.8641 34.2017 46.4607 34.3722 47.0952 34.5142L49.7088 35.1392C50.9777 35.4233 52.1425 35.8021 53.2031 36.2756C54.2637 36.7491 55.1823 37.3314 55.9588 38.0227C56.7353 38.714 57.3366 39.5284 57.7628 40.4659C58.1984 41.4034 58.4209 42.4782 58.4304 43.6903C58.4209 45.4706 57.9664 47.0142 57.0668 48.321C56.1766 49.6184 54.8887 50.6269 53.2031 51.3466C51.527 52.0568 49.5052 52.4119 47.1378 52.4119C44.7893 52.4119 42.7438 52.0521 41.0014 51.3324C39.2685 50.6127 37.9143 49.5473 36.9389 48.1364C35.973 46.7159 35.4664 44.9593 35.419 42.8665H41.3707C41.437 43.8419 41.7164 44.6562 42.2088 45.3097C42.7107 45.9536 43.3783 46.4413 44.2116 46.7727C45.0545 47.0947 46.0062 47.2557 47.0668 47.2557C48.1084 47.2557 49.0128 47.1042 49.7798 46.8011C50.5563 46.4981 51.1577 46.0767 51.5838 45.5369C52.0099 44.9972 52.223 44.3769 52.223 43.6761C52.223 43.0227 52.0289 42.4735 51.6406 42.0284C51.2618 41.5833 50.7031 41.2045 49.9645 40.892C49.2353 40.5795 48.3404 40.2955 47.2798 40.0398L44.1122 39.2443C41.6596 38.6477 39.723 37.715 38.3026 36.446C36.8821 35.1771 36.1766 33.4678 36.1861 31.3182C36.1766 29.5568 36.6454 28.018 37.5923 26.7017C38.5488 25.3854 39.8603 24.358 41.527 23.6193C43.1937 22.8807 45.0876 22.5114 47.2088 22.5114C49.3679 22.5114 51.2524 22.8807 52.8622 23.6193C54.4815 24.358 55.741 25.3854 56.6406 26.7017C57.5402 28.018 58.0043 29.5426 58.0327 31.2756H52.1378ZM62.4538 52V30.1818H68.505V52H62.4538ZM65.4936 27.3693C64.594 27.3693 63.8222 27.071 63.1783 26.4744C62.5438 25.8684 62.2266 25.1439 62.2266 24.3011C62.2266 23.4678 62.5438 22.7528 63.1783 22.1562C63.8222 21.5502 64.594 21.2472 65.4936 21.2472C66.3932 21.2472 67.1603 21.5502 67.7947 22.1562C68.4387 22.7528 68.7607 23.4678 68.7607 24.3011C68.7607 25.1439 68.4387 25.8684 67.7947 26.4744C67.1603 27.071 66.3932 27.3693 65.4936 27.3693ZM83.1818 60.6364C81.2216 60.6364 79.5407 60.3665 78.1392 59.8267C76.7472 59.2964 75.6392 58.572 74.8153 57.6534C73.9915 56.7348 73.4564 55.7027 73.2102 54.5568L78.8068 53.804C78.9773 54.2396 79.2472 54.6468 79.6165 55.0256C79.9858 55.4044 80.4735 55.7074 81.0795 55.9347C81.6951 56.1714 82.4432 56.2898 83.3239 56.2898C84.6402 56.2898 85.7244 55.9678 86.5767 55.3239C87.4384 54.6894 87.8693 53.6241 87.8693 52.1278V48.1364H87.6136C87.3485 48.7424 86.9508 49.3153 86.4205 49.8551C85.8902 50.3949 85.2083 50.8352 84.375 51.1761C83.5417 51.517 82.5473 51.6875 81.392 51.6875C79.7538 51.6875 78.2623 51.3087 76.9176 50.5511C75.5824 49.7841 74.517 48.6146 73.7216 47.0426C72.9356 45.4612 72.5426 43.4631 72.5426 41.0483C72.5426 38.5767 72.9451 36.5123 73.75 34.8551C74.5549 33.1979 75.625 31.9574 76.9602 31.1335C78.3049 30.3097 79.7775 29.8977 81.3778 29.8977C82.5994 29.8977 83.6222 30.1061 84.446 30.5227C85.2699 30.9299 85.9328 31.4413 86.4347 32.0568C86.946 32.6629 87.339 33.2595 87.6136 33.8466H87.8409V30.1818H93.8494V52.2131C93.8494 54.0691 93.3949 55.6222 92.4858 56.8722C91.5767 58.1222 90.3172 59.0597 88.7074 59.6847C87.107 60.3191 85.2652 60.6364 83.1818 60.6364ZM83.3097 47.142C84.285 47.142 85.1089 46.9006 85.7812 46.4176C86.4631 45.9252 86.9839 45.2244 87.3438 44.3153C87.7131 43.3968 87.8977 42.2983 87.8977 41.0199C87.8977 39.7415 87.7178 38.6335 87.358 37.696C86.9981 36.7491 86.4773 36.0152 85.7955 35.4943C85.1136 34.9735 84.285 34.7131 83.3097 34.7131C82.3153 34.7131 81.4773 34.983 80.7955 35.5227C80.1136 36.053 79.5975 36.7917 79.2472 37.7386C78.8968 38.6856 78.7216 39.7794 78.7216 41.0199C78.7216 42.2794 78.8968 43.3684 79.2472 44.2869C79.607 45.196 80.1231 45.9015 80.7955 46.4034C81.4773 46.8958 82.3153 47.142 83.3097 47.142ZM104.716 39.3864V52H98.6648V30.1818H104.432V34.0312H104.688C105.17 32.7623 105.98 31.7585 107.116 31.0199C108.253 30.2718 109.631 29.8977 111.25 29.8977C112.765 29.8977 114.086 30.2292 115.213 30.892C116.34 31.5549 117.216 32.5019 117.841 33.733C118.466 34.9545 118.778 36.4129 118.778 38.108V52H112.727V39.1875C112.737 37.8523 112.396 36.8106 111.705 36.0625C111.013 35.3049 110.062 34.9261 108.849 34.9261C108.035 34.9261 107.315 35.1013 106.69 35.4517C106.075 35.8021 105.592 36.3134 105.241 36.9858C104.901 37.6487 104.725 38.4489 104.716 39.3864ZM132.805 52V30.1818H138.857V52H132.805ZM135.845 27.3693C134.946 27.3693 134.174 27.071 133.53 26.4744C132.895 25.8684 132.578 25.1439 132.578 24.3011C132.578 23.4678 132.895 22.7528 133.53 22.1562C134.174 21.5502 134.946 21.2472 135.845 21.2472C136.745 21.2472 137.512 21.5502 138.146 22.1562C138.79 22.7528 139.112 23.4678 139.112 24.3011C139.112 25.1439 138.79 25.8684 138.146 26.4744C137.512 27.071 136.745 27.3693 135.845 27.3693ZM149.755 39.3864V52H143.704V30.1818H149.471V34.0312H149.727C150.21 32.7623 151.019 31.7585 152.156 31.0199C153.292 30.2718 154.67 29.8977 156.289 29.8977C157.804 29.8977 159.125 30.2292 160.252 30.892C161.379 31.5549 162.255 32.5019 162.88 33.733C163.505 34.9545 163.817 36.4129 163.817 38.108V52H157.766V39.1875C157.776 37.8523 157.435 36.8106 156.744 36.0625C156.052 35.3049 155.101 34.9261 153.888 34.9261C153.074 34.9261 152.354 35.1013 151.729 35.4517C151.114 35.8021 150.631 36.3134 150.281 36.9858C149.94 37.6487 149.764 38.4489 149.755 39.3864Z" fill="white"/>
</g>
<defs>
<filter id="filter0_d_362_308" x="31.4189" y="21.2471" width="136.398" height="47.3896" filterUnits="userSpaceOnUse" color-interpolation-filters="sRGB">
<feFlood flood-opacity="0" result="BackgroundImageFix"/>
<feColorMatrix in="SourceAlpha" type="matrix" values="0 0 0 0 0 0 0 0 0 0 0 0 0 0 0 0 0 0 127 0" result="hardAlpha"/>
<feOffset dy="4"/>
<feGaussianBlur stdDeviation="2"/>
<feComposite in2="hardAlpha" operator="out"/>
<feColorMatrix type="matrix" values="0 0 0 0 0 0 0 0 0 0 0 0 0 0 0 0 0 0 0.25 0"/>
<feBlend mode="normal" in2="BackgroundImageFix" result="effect1_dropShadow_362_308"/>
<feBlend mode="normal" in="SourceGraphic" in2="effect1_dropShadow_362_308" result="shape"/>
</filter>
<linearGradient id="paint0_linear_362_308" x1="100" y1="0" x2="100" y2="34.2051" gradientUnits="userSpaceOnUse">
<stop stop-color="#003559"/>
<stop offset="1" stop-color="#FD841C" stop-opacity="0.9"/>
</linearGradient>
</defs>
</svg>
