<?xml version="1.0" encoding="UTF-8" standalone="no" ?>
<!DOCTYPE svg PUBLIC "-//W3C//DTD SVG 1.1//EN" "http://www.w3.org/Graphics/SVG/1.1/DTD/svg11.dtd">
<svg xmlns="http://www.w3.org/2000/svg" xmlns:xlink="http://www.w3.org/1999/xlink" version="1.1" width="1920" height="1080" viewBox="0 0 1920 1080" xml:space="preserve">
<desc>Created with Fabric.js 3.6.6</desc>
<defs>
</defs>
<g transform="matrix(1.19 0 0 1.37 1308.23 634.77)"  >
<linearGradient id="SVGID_4845" gradientUnits="userSpaceOnUse" gradientTransform="matrix(1 0 0 1 0 0)"  x1="1134.500000001157" y1="0" x2="1134.500000001157" y2="707.9999999901112">
<stop offset="0%" style="stop-color:rgba(87, 183, 242, 1);"/>
<stop offset="68.293%" style="stop-color:rgba(154, 213, 253, 0.8);"/>
<stop offset="100%" style="stop-color:rgba(255, 255, 255, 0.85);"/>
</linearGradient>
<path style="stroke: none; stroke-width: 1; stroke-dasharray: none; stroke-linecap: butt; stroke-dashoffset: 0; stroke-linejoin: miter; stroke-miterlimit: 4; fill: url(#SVGID_4845); fill-rule: nonzero; opacity: 1;"  transform=" translate(-1134.5, -354)" d="M 2268.96 707.781 C 1798.42 707.726 1327.91 707.617 857.362 707.562 C 580.719 707.562 304.077 707.562 27.4341 707.562 C 22.5558 707.562 17.6391 707.343 12.7608 707.452 C 4.38699 707.562 0.430566 702.524 0.430566 689.875 C 0.430566 618.906 -0.0687887 547.992 0.00803515 477.024 C 0.00803515 454.901 4.31017 450.849 18.6762 457.475 C 23.0936 459.501 26.8964 460.76 31.1985 457.146 C 72.837 422.045 108.714 377.252 140.404 325.504 C 148.547 312.197 148.163 296.372 146.626 274.632 C 104.527 343.246 58.663 398.553 2.50481 439.623 C 2.54322 426.426 8.65072 425.002 12.7224 421.552 C 60.2763 381.633 102.99 333.499 138.176 272.606 C 141.249 267.295 144.322 261.6 146.165 255.302 C 149.93 242.543 153.348 236.903 160.762 251.688 C 164.642 259.409 170.25 257.164 174.859 251.469 C 177.663 247.964 179.507 240.681 184.116 243.529 C 189.532 246.869 188.764 255.083 188.764 261.928 C 188.841 300.862 188.687 339.851 188.687 378.785 C 188.687 405.234 188.879 431.683 188.687 458.077 C 188.611 470.343 191.338 476.969 200.902 478.831 C 225.601 483.705 250.492 487.647 274.384 498.435 C 283.411 502.487 285.831 496.628 285.754 485.183 C 285.639 471.274 285.908 457.365 285.985 443.456 C 285.985 433.435 289.327 427.247 296.471 427.247 C 304.73 427.247 303.424 436.885 303.539 444.113 C 303.769 463.608 303.116 483.102 303.808 502.542 C 304.461 521.215 313.833 528.169 325.511 519.189 C 335.229 511.687 339.147 520.229 341.989 530.579 C 344.217 538.519 345.216 547.116 348.558 557.137 C 347.405 526.746 360.619 520.667 376.675 518.148 C 381.4 517.437 385.741 512.07 390.465 511.413 C 403.717 509.551 410.363 500.078 411.284 481.131 C 412.206 462.677 422.385 450.849 428.762 436.392 C 432.411 428.178 436.944 429.328 439.44 438.473 C 441.707 446.851 443.358 455.613 445.394 464.758 C 448.967 458.953 446.969 452.163 447.276 446.03 C 447.776 435.68 446.316 423.579 454.498 418.541 C 463.678 412.9 473.819 413.01 483.076 418.486 C 489.568 422.319 488.684 432.121 488.953 440.445 C 489.568 460.322 487.57 480.364 491.642 500.187 C 495.445 486.114 493.678 471.329 494.101 456.818 C 494.638 437.542 513.499 411.312 526.674 411.696 C 536.93 411.97 555.521 437.707 555.905 453.039 C 556.289 470.398 555.982 487.757 558.94 505.499 C 561.744 465.798 564.241 426.043 567.352 386.397 C 574.996 288.815 577.723 190.96 576.11 92.8304 C 576.072 89.3806 575.572 84.4522 576.878 82.6999 C 591.552 63.4245 587.134 36.2637 591.628 12.8814 C 592.627 7.67921 592.32 0.341418 597.313 0.0128603 C 603.651 -0.370457 602.768 7.89825 603.651 13.7028 C 607.07 36.8661 604.957 62.1103 618.555 81.4952 C 621.705 86.0402 620.591 97.485 620.437 105.699 C 618.094 219.927 623.664 333.499 635.341 446.961 C 635.341 425.002 635.149 402.989 635.38 381.03 C 635.61 358.688 639.835 352.774 655.469 352.008 C 660.847 351.734 666.224 352.008 671.64 352.008 C 697.3 352.008 699.912 355.512 699.72 392.968 C 699.527 425.605 698.798 458.187 698.375 490.823 C 698.298 495.368 697.069 500.516 700.987 504.075 C 704.598 497.997 702.831 490.823 702.831 484.416 C 703.023 423.907 702.908 363.343 702.984 302.834 C 703.023 275.728 709.515 266.254 728.298 265.707 C 738.592 265.378 748.848 265.488 759.143 265.707 C 778.003 266.09 782.766 272.661 782.805 299.055 C 782.92 351.241 782.536 403.427 783.073 455.613 C 783.189 467.551 778.041 487.483 789.757 488.852 C 796.441 489.619 792.792 468.646 793.137 457.584 C 793.982 431.19 796.441 427.74 814.456 427.302 C 827.862 426.974 832.586 435.297 832.625 453.696 C 832.663 478.01 834.084 502.268 835.16 526.581 C 835.544 535.179 838.694 544.762 844.801 536.11 C 859.436 515.356 878.757 508.949 896.734 499.585 C 913.635 490.769 924.583 478.174 927.195 452.108 C 929 434.257 932.15 416.679 934.301 398.882 C 935.453 389.299 934.762 378.895 944.941 378.511 C 955.697 378.073 956.618 388.806 957.118 399.32 C 958.117 420.129 965.607 437.597 970.831 456.215 C 973.52 465.743 978.168 472.753 986.119 473.026 C 994.339 473.355 997.796 465.305 1001.25 456.27 C 1016.89 415.255 1028.45 371.666 1041.16 328.844 C 1043.74 320.192 1043.43 311.157 1043.89 302.176 C 1044.51 290.02 1047.08 281.915 1056.37 292.484 C 1061.41 298.234 1065.75 298.727 1070.55 291.991 C 1075.2 285.475 1080.65 285.968 1081.11 295.715 C 1083.22 338.701 1104.58 366.957 1120.6 398.28 C 1152.25 460.268 1186.94 519.189 1233.22 560.806 C 1249.7 575.646 1265.3 593.662 1286.54 596.345 C 1301.6 598.262 1303.29 623.67 1314.89 635.663 C 1320.19 628.106 1321.38 616.771 1324.18 607.078 C 1328.91 590.65 1336.67 581.341 1348.96 578.384 C 1357.14 576.413 1365.05 571.813 1373.27 570.499 C 1388.18 568.144 1393.9 558.178 1393.67 536.219 C 1392.71 446.523 1397.66 356.881 1396.09 267.13 C 1395.82 252.455 1397.2 239.312 1404.39 226.499 C 1411.65 213.521 1412.41 195.505 1414.1 178.967 C 1414.53 174.915 1414.83 170.151 1418.56 169.549 C 1421.48 169.056 1423.13 172.232 1423.4 175.901 C 1426.74 222.282 1444.6 264.064 1440.76 313.402 C 1435.35 383.221 1441.72 453.642 1440.92 523.843 C 1440.49 563.27 1441.57 566.83 1468.38 570.115 C 1495.19 573.401 1506.41 595.14 1513.59 628.051 C 1513.59 585.996 1513.9 543.995 1513.4 501.994 C 1513.25 487.921 1514.86 476.695 1523.19 467.277 C 1529.72 459.884 1533.99 449.48 1534.1 436.557 C 1534.14 430.15 1535.14 423.14 1541.02 423.14 C 1545.63 423.14 1548.09 428.89 1548.28 434.476 C 1548.93 452.273 1555.65 465.689 1562.6 479.324 C 1564.53 483.102 1565.79 487.976 1566.45 492.63 C 1570.21 520.12 1570.36 520.996 1588.11 509.825 C 1597.75 503.747 1609.24 502.487 1616.61 489.838 C 1618.65 486.388 1620.15 486.771 1622.6 489.619 C 1638.35 508.127 1658.21 514.753 1676.42 526.089 C 1686.33 532.276 1692.94 537.807 1686.87 555.111 C 1683.06 565.899 1686.98 573.948 1694.05 578.877 C 1699.31 582.546 1704.65 586.16 1710.15 589.007 C 1719.36 593.771 1723.63 601.493 1720.79 616.059 C 1719.67 621.863 1720.09 628.599 1720.82 634.622 C 1721.9 643.274 1726.66 647.326 1732.46 647.983 C 1739.15 648.695 1740.34 641.084 1741.18 634.184 C 1743.91 612.116 1742.26 589.774 1742.87 567.542 C 1743.41 547.5 1742.87 527.074 1754.63 511.632 C 1757.66 507.635 1758.85 500.023 1756.89 496.08 C 1748.75 479.707 1756.89 471.548 1762.62 458.789 C 1772.45 436.611 1771.53 408.958 1771.68 383.659 C 1771.8 361.974 1784.09 360.988 1791.54 353.103 C 1796.49 347.901 1794.57 361.974 1797.72 365.369 C 1801.33 357.265 1798.3 342.37 1805.68 340.289 C 1813.7 338.044 1806.67 353.322 1812.28 357.922 C 1817.93 351.624 1815.2 341.111 1818.01 333.554 C 1819.39 329.885 1820.5 325.395 1824.31 326.873 C 1827.19 327.968 1826.46 332.349 1827.38 335.361 C 1834.56 359.017 1839.71 383.002 1838.1 409.341 C 1837.63 416.788 1842.78 418.486 1847.12 420.786 C 1861.56 428.343 1876.55 430.807 1891.8 431.135 C 1947.61 432.395 2003.34 430.643 2059 424.126 C 2070.76 422.757 2075.75 412.572 2068.95 397.403 C 2062.46 382.837 2066.42 376.431 2074.67 372.269 C 2089.42 364.821 2096.3 352.72 2095.72 329.009 C 2095.26 310.226 2118.43 293.743 2130.91 303.436 C 2163.14 328.406 2194.79 354.8 2226.67 380.647 C 2231.32 384.425 2233.55 390.285 2233.89 397.732 C 2234.01 400.525 2234.24 403.317 2234.12 406.055 C 2230.86 491.645 2242.65 576.522 2239.96 662.057 C 2239.5 677.061 2243.38 684.399 2254.33 683.303 C 2259.2 682.811 2264.12 683.03 2269 682.975 V 708 L 2268.96 707.781 Z M 2129.68 682.701 C 2158.07 682.701 2180.58 682.427 2203.08 682.811 C 2214.11 682.975 2219.37 676.404 2219.1 660.414 C 2218.8 640.974 2218.53 621.425 2219.1 601.985 C 2219.99 573.62 2218.91 544.104 2207.96 521.215 C 2190.52 484.909 2190.6 449.316 2201.13 411.148 C 2204.2 400.032 2198.25 396.144 2194.17 390.778 C 2190.79 386.342 2187.8 378.238 2182.07 382.29 C 2176.89 385.959 2177.96 394.282 2177.89 401.072 C 2177.73 424.728 2177.89 448.385 2177.77 471.986 C 2177.66 489.29 2166.13 511.358 2156.26 513.768 C 2143.97 516.725 2130.03 502.159 2126.38 481.35 C 2119.16 440.171 2119 399.32 2130.37 359.291 C 2132.6 351.46 2136.02 341.987 2127.45 338.92 C 2120.12 336.292 2117.54 345.491 2116.31 354.143 C 2112.24 383.166 2112.43 412.572 2113.62 441.868 C 2114.32 458.406 2103.29 498.928 2093.73 502.87 C 2078.9 508.949 2065.92 502.87 2056.24 484.69 C 2052.09 476.914 2046.1 473.519 2039.3 475.491 C 2026.2 479.324 2012.75 475.6 1999.81 478.448 C 1969.12 485.238 1937.01 477.243 1907.47 496.135 C 1904.2 498.216 1900.71 497.559 1897.44 495.533 C 1883.69 487.1 1881.08 498.161 1881.08 514.151 C 1881.08 553.085 1881.08 592.019 1881.08 631.008 C 1881.08 654.591 1889.46 666.31 1906.24 666.164 C 1909.16 666.164 1912.38 665.78 1914.96 667.368 C 1934.51 679.306 1955.71 677.17 1975.69 677.28 C 2029 677.608 2082.2 685.658 2129.68 682.592 V 682.701 Z M 144.744 330.651 C 114.322 382.126 81.0572 426.262 42.2611 462.622 C 74.0278 467.167 104.642 468.591 135.256 470.343 C 142.439 470.781 144.783 465.853 144.783 456.653 C 144.744 416.022 144.783 375.335 144.783 330.651 H 144.744 Z M 87.1263 507.142 C 87.1263 507.689 87.1263 508.237 87.1263 508.785 C 70.5707 508.785 53.9768 508.292 37.4212 508.949 C 23.9002 509.496 24.7453 523.789 24.6685 537.479 C 24.5917 551.661 29.3547 558.068 38.9193 557.411 C 48.6375 556.754 58.3173 555.44 68.0355 554.509 C 87.011 552.647 106.563 553.633 124.079 561.409 C 143.054 569.787 144.283 572.141 144.475 543.94 C 144.475 539.778 144.206 535.562 144.514 531.455 C 145.896 513.768 141.018 505.937 127.997 506.923 C 114.399 508.018 100.724 507.142 87.0494 507.142 H 87.1263 Z M 207.01 556.206 C 211.005 554.125 215.499 554.071 217.996 558.561 C 222.682 567.104 227.829 565.351 233.629 562.613 C 246.113 556.644 259.058 553.742 272.195 553.249 C 280.914 552.976 282.144 544.762 283.603 535.507 C 285.485 523.734 279.839 521.927 274 518.86 C 252.029 507.416 228.789 508.785 206.088 504.623 C 200.288 503.528 193.374 501.775 190.646 511.413 C 187.305 523.186 187.112 536.493 190.8 547.938 C 193.566 556.535 199.98 559.985 207.01 556.152 V 556.206 Z M 956.426 520.558 C 956.58 534.467 958.539 541.093 971.522 541.64 C 990.575 542.516 1012.62 526.308 1028.83 555.385 C 1030.83 558.944 1037.4 562.613 1039.63 553.414 C 1041.7 544.652 1040.01 536.767 1033.1 533.207 C 1012.89 522.803 992.726 512.344 972.444 502.323 C 960.882 496.628 955.735 503.473 956.426 520.503 V 520.558 Z" stroke-linecap="round" />
</g>
</svg>