<svg width="76" height="52" viewBox="0 0 76 52" fill="none" xmlns="http://www.w3.org/2000/svg">
<g clip-path="url(#clip0_50_167)">
<path d="M38.1592 40.5682L65.4787 27.0196C65.7223 26.8986 65.9209 26.7392 66.058 26.5545C66.1951 26.3697 66.2668 26.165 66.2671 25.9572V25.9541C66.2665 25.7456 66.1941 25.5402 66.0559 25.355C65.9177 25.1698 65.7178 25.0101 65.4727 24.8892L38.1532 11.4279C37.8708 11.2888 37.5384 11.2063 37.1928 11.1895C36.8471 11.1727 36.5014 11.2223 36.1938 11.3328C35.8857 11.4427 35.6273 11.6094 35.4472 11.8145C35.2671 12.0197 35.1721 12.2553 35.1728 12.4955V18.8307L10.6357 18.8301C10.3878 18.8301 10.1424 18.8639 9.9134 18.9296C9.68441 18.9953 9.47635 19.0917 9.30113 19.2132C9.12591 19.3347 8.98696 19.479 8.89222 19.6377C8.79749 19.7965 8.74883 19.9666 8.74902 20.1385L8.74977 31.8598C8.74968 32.0316 8.79845 32.2018 8.89331 32.3606C8.98818 32.5194 9.12727 32.6637 9.30263 32.7852C9.47799 32.9067 9.68618 33.0031 9.91531 33.0688C10.1444 33.1345 10.39 33.1682 10.6379 33.1681L35.172 33.1681V39.5053C35.172 39.9941 35.5696 40.4429 36.1975 40.6686C36.5061 40.7786 36.8526 40.8275 37.1987 40.8098C37.5449 40.7921 37.8772 40.7085 38.1592 40.5682Z" fill="#038DEA"/>
</g>
<defs>
<clipPath id="clip0_50_167">
<rect width="52" height="75.0164" fill="white" transform="matrix(0 1 -1 0 75.0166 0)"/>
</clipPath>
</defs>
</svg>
