<svg width="450" height="450" viewBox="0 0 450 450" fill="none" xmlns="http://www.w3.org/2000/svg">
<circle cx="225" cy="225" r="200" fill="url(#paint0_linear_597_49)"/>
<mask id="path-2-inside-1_597_49" fill="white">
<path fill-rule="evenodd" clip-rule="evenodd" d="M225 450C349.264 450 450 349.264 450 225C450 100.736 349.264 2.29203e-05 225 0C100.736 -2.05337e-05 2.1727e-05 100.736 0 225C-2.16949e-05 349.264 100.736 450 225 450ZM225 425C335.457 425 425 335.457 425 225C425 114.543 335.457 25 225 25C114.543 25 25 114.543 25 225C25 335.457 114.543 425 225 425Z"/>
</mask>
<path fill-rule="evenodd" clip-rule="evenodd" d="M225 450C349.264 450 450 349.264 450 225C450 100.736 349.264 2.29203e-05 225 0C100.736 -2.05337e-05 2.1727e-05 100.736 0 225C-2.16949e-05 349.264 100.736 450 225 450ZM225 425C335.457 425 425 335.457 425 225C425 114.543 335.457 25 225 25C114.543 25 25 114.543 25 225C25 335.457 114.543 425 225 425Z" fill="url(#paint1_linear_597_49)"/>
<path d="M450 225H453H450ZM225 450V447V450ZM225 0V-3V0ZM0 225H-3H0ZM425 225H428H425ZM225 425V428V425ZM225 25V22V25ZM25 225H28H25ZM447 225C447 347.607 347.607 447 225 447V453C350.921 453 453 350.921 453 225H447ZM225 3C347.607 3.00002 447 102.393 447 225H453C453 99.0791 350.921 -2.99998 225 -3V3ZM3 225C3.00002 102.393 102.393 2.99998 225 3V-3C99.0791 -3.00002 -2.99998 99.079 -3 225H3ZM225 447C102.393 447 2.99998 347.607 3 225H-3C-3.00002 350.921 99.079 453 225 453V447ZM422 225C422 333.8 333.8 422 225 422V428C337.114 428 428 337.114 428 225H422ZM225 28C333.8 28 422 116.2 422 225H428C428 112.886 337.114 22 225 22V28ZM28 225C28 116.2 116.2 28 225 28V22C112.886 22 22 112.886 22 225H28ZM225 422C116.2 422 28 333.8 28 225H22C22 337.114 112.886 428 225 428V422Z" fill="#003559" mask="url(#path-2-inside-1_597_49)"/>
<defs>
<linearGradient id="paint0_linear_597_49" x1="225" y1="25" x2="225" y2="196.5" gradientUnits="userSpaceOnUse">
<stop stop-color="#7BF7D9"/>
<stop offset="1" stop-color="#D9D9D9" stop-opacity="0"/>
</linearGradient>
<linearGradient id="paint1_linear_597_49" x1="225" y1="0" x2="225" y2="450" gradientUnits="userSpaceOnUse">
<stop stop-color="white"/>
<stop offset="1" stop-color="#003559"/>
</linearGradient>
</defs>
</svg>
