<svg width="1462" height="531" viewBox="0 0 1462 531" fill="none" xmlns="http://www.w3.org/2000/svg">
<path d="M1461.74 530.548C1158.72 530.507 855.726 530.425 552.707 530.384C374.556 530.384 196.406 530.384 18.255 530.384C15.1135 530.384 11.9473 530.22 8.80575 530.302C3.41324 530.384 0.865408 526.614 0.865408 517.148C0.865408 464.038 0.543837 410.969 0.593309 357.859C0.593309 341.303 3.36377 338.27 12.6151 343.229C15.4598 344.745 17.9087 345.688 20.6792 342.983C47.4933 316.715 70.5969 283.193 91.0044 244.467C96.2484 234.509 96.0011 222.666 95.0116 206.397C67.9007 257.745 38.3656 299.135 2.20117 329.869C2.2259 319.993 6.15897 318.928 8.78101 316.346C39.4045 286.472 66.9112 250.45 89.5697 204.881C91.5486 200.906 93.5275 196.644 94.7148 191.931C97.139 182.383 99.3405 178.162 104.115 189.226C106.613 195.005 110.224 193.324 113.193 189.062C114.999 186.44 116.186 180.989 119.154 183.12C122.642 185.62 122.147 191.767 122.147 196.89C122.197 226.026 122.098 255.204 122.098 284.341C122.098 304.134 122.222 323.927 122.098 343.68C122.048 352.859 123.805 357.818 129.964 359.211C145.869 362.858 161.899 365.809 177.284 373.882C183.097 376.914 184.656 372.53 184.606 363.965C184.532 353.556 184.705 343.147 184.755 332.738C184.755 325.239 186.907 320.608 191.508 320.608C196.826 320.608 195.985 327.82 196.059 333.23C196.208 347.819 195.787 362.407 196.232 376.955C196.653 390.93 202.689 396.134 210.208 389.413C216.467 383.799 218.99 390.192 220.82 397.937C222.255 403.879 222.898 410.313 225.05 417.812C224.308 395.068 232.817 390.52 243.157 388.635C246.2 388.102 248.995 384.086 252.037 383.594C260.571 382.201 264.851 375.111 265.445 360.932C266.038 347.122 272.593 338.27 276.7 327.452C279.049 321.305 281.968 322.165 283.576 329.009C285.036 335.279 286.099 341.836 287.41 348.679C289.711 344.335 288.425 339.254 288.622 334.664C288.944 326.919 288.004 317.862 293.273 314.092C299.185 309.871 305.715 309.953 311.677 314.051C315.857 316.92 315.288 324.255 315.461 330.484C315.857 345.36 314.571 360.358 317.193 375.193C319.642 364.661 318.504 353.597 318.776 342.737C319.122 328.312 331.268 308.683 339.752 308.97C346.357 309.175 358.329 328.435 358.577 339.91C358.824 352.9 358.626 365.891 360.531 379.168C362.336 349.458 363.944 319.706 365.948 290.037C370.87 217.011 372.627 143.78 371.588 70.3436C371.563 67.7619 371.242 64.0737 372.083 62.7623C381.532 48.3374 378.687 28.0114 381.581 10.513C382.224 6.61986 382.027 1.12855 385.242 0.882671C389.324 0.595812 388.755 6.78378 389.324 11.1276C391.525 28.4622 390.165 47.3539 398.921 61.8608C400.95 65.2621 400.232 73.8269 400.133 79.9739C398.625 165.458 402.211 250.45 409.731 335.361C409.731 318.928 409.607 302.454 409.756 286.021C409.904 269.301 412.625 264.875 422.693 264.302C426.156 264.097 429.619 264.302 433.107 264.302C449.631 264.302 451.313 266.924 451.189 294.955C451.065 319.379 450.595 343.762 450.323 368.186C450.274 371.587 449.482 375.439 452.005 378.103C454.331 373.554 453.193 368.186 453.193 363.391C453.316 318.108 453.242 272.784 453.292 227.502C453.316 207.217 457.497 200.127 469.593 199.717C476.222 199.471 482.827 199.553 489.456 199.717C501.602 200.004 504.669 204.922 504.694 224.674C504.768 263.728 504.521 302.782 504.867 341.836C504.941 350.769 501.626 365.686 509.171 366.71C513.475 367.284 511.125 351.589 511.348 343.311C511.892 323.559 513.475 320.977 525.076 320.649C533.709 320.403 536.752 326.632 536.777 340.401C536.801 358.596 537.717 376.75 538.409 394.946C538.657 401.379 540.685 408.551 544.618 402.076C554.043 386.545 566.485 381.75 578.061 374.742C588.945 368.145 595.995 358.719 597.677 339.213C598.84 325.853 600.868 312.699 602.254 299.38C602.996 292.209 602.55 284.423 609.105 284.136C616.032 283.808 616.625 291.84 616.947 299.708C617.59 315.281 622.414 328.353 625.778 342.286C627.509 349.417 630.502 354.662 635.623 354.867C640.916 355.113 643.143 349.089 645.369 342.327C655.437 311.633 662.882 279.013 671.07 246.967C672.727 240.492 672.529 233.731 672.826 227.01C673.222 217.912 674.879 211.847 680.865 219.756C684.106 224.059 686.901 224.428 689.993 219.388C692.986 214.511 696.499 214.88 696.796 222.174C698.156 254.343 711.909 275.489 722.224 298.93C742.607 345.319 764.944 389.413 794.751 420.558C805.363 431.664 815.406 445.146 829.085 447.154C838.782 448.588 839.87 467.603 847.341 476.578C850.754 470.922 851.521 462.439 853.327 455.186C856.369 442.892 861.366 435.925 869.282 433.713C874.55 432.237 879.646 428.795 884.94 427.811C894.537 426.049 898.223 418.591 898.075 402.158C897.456 335.033 900.647 267.949 899.633 200.783C899.46 189.8 900.35 179.965 904.976 170.376C909.651 160.663 910.146 147.181 911.234 134.805C911.506 131.773 911.704 128.207 914.104 127.756C915.984 127.388 917.047 129.765 917.22 132.51C919.373 167.22 930.875 198.488 928.401 235.411C924.913 287.66 929.02 340.36 928.5 392.897C928.228 422.402 928.921 425.066 946.187 427.525C963.452 429.983 970.676 446.252 975.301 470.881C975.301 439.409 975.499 407.977 975.178 376.546C975.079 366.014 976.118 357.613 981.485 350.564C985.69 345.032 988.436 337.246 988.51 327.575C988.535 322.78 989.178 317.534 992.963 317.534C995.931 317.534 997.514 321.837 997.638 326.017C998.059 339.336 1002.39 349.376 1006.86 359.58C1008.1 362.407 1008.92 366.055 1009.34 369.538C1011.76 390.11 1011.86 390.766 1023.29 382.406C1029.5 377.857 1036.89 376.914 1041.64 367.448C1042.95 364.866 1043.92 365.153 1045.5 367.284C1055.64 381.135 1068.43 386.094 1080.16 394.577C1086.54 399.207 1090.79 403.346 1086.89 416.296C1084.44 424.369 1086.96 430.393 1091.51 434.081C1094.9 436.827 1098.34 439.532 1101.88 441.663C1107.81 445.228 1110.56 451.006 1108.73 461.907C1108.01 466.251 1108.28 471.291 1108.75 475.799C1109.45 482.274 1112.51 485.306 1116.25 485.798C1120.55 486.331 1121.32 480.635 1121.86 475.471C1123.62 458.956 1122.56 442.236 1122.95 425.599C1123.3 410.6 1122.95 395.314 1130.52 383.758C1132.48 380.767 1133.24 375.07 1131.98 372.12C1126.74 359.867 1131.98 353.761 1135.67 344.212C1142 327.616 1141.41 306.921 1141.5 287.988C1141.58 271.76 1149.49 271.022 1154.29 265.121C1157.48 261.228 1156.25 271.76 1158.28 274.301C1160.6 268.236 1158.65 257.089 1163.4 255.532C1168.57 253.852 1164.04 265.285 1167.65 268.727C1171.29 264.015 1169.53 256.147 1171.34 250.491C1172.23 247.746 1172.94 244.385 1175.39 245.492C1177.25 246.311 1176.78 249.59 1177.37 251.844C1182 269.547 1185.31 287.496 1184.27 307.208C1183.98 312.781 1187.29 314.051 1190.09 315.772C1199.39 321.428 1209.03 323.272 1218.85 323.518C1254.8 324.46 1290.69 323.149 1326.53 318.272C1334.1 317.248 1337.32 309.625 1332.94 298.274C1328.76 287.373 1331.31 282.579 1336.62 279.464C1346.12 273.891 1350.55 264.834 1350.18 247.09C1349.88 233.034 1364.8 220.699 1372.84 227.952C1393.59 246.639 1413.97 266.392 1434.51 285.734C1437.5 288.562 1438.93 292.947 1439.16 298.52C1439.23 300.61 1439.38 302.7 1439.3 304.749C1437.2 368.8 1444.8 432.319 1443.06 496.33C1442.77 507.558 1445.27 513.05 1452.32 512.23C1455.46 511.861 1458.62 512.025 1461.76 511.984V530.712L1461.74 530.548ZM1372.05 511.779C1390.33 511.779 1404.82 511.574 1419.32 511.861C1426.42 511.984 1429.81 507.067 1429.63 495.1C1429.43 480.553 1429.26 465.923 1429.63 451.375C1430.2 430.147 1429.51 408.059 1422.46 390.93C1411.23 363.76 1411.28 337.123 1418.06 308.56C1420.03 300.241 1416.2 297.331 1413.58 293.315C1411.4 289.996 1409.47 283.931 1405.79 286.963C1402.45 289.709 1403.14 295.938 1403.09 301.02C1402.99 318.723 1403.09 336.426 1403.02 354.089C1402.94 367.038 1395.52 383.553 1389.16 385.356C1381.25 387.569 1372.27 376.669 1369.92 361.096C1365.27 330.279 1365.17 299.708 1372.49 269.752C1373.93 263.892 1376.13 256.802 1370.61 254.507C1365.89 252.54 1364.23 259.425 1363.44 265.9C1360.82 287.619 1360.94 309.625 1361.71 331.55C1362.15 343.926 1355.05 374.251 1348.89 377.201C1339.34 381.75 1330.98 377.201 1324.75 363.596C1322.08 357.777 1318.22 355.236 1313.84 356.711C1305.41 359.58 1296.75 356.793 1288.41 358.924C1268.65 364.006 1247.97 358.023 1228.95 372.161C1226.84 373.718 1224.59 373.226 1222.49 371.71C1213.64 365.399 1211.95 373.677 1211.95 385.643C1211.95 414.78 1211.95 443.917 1211.95 473.094C1211.95 490.743 1217.35 499.513 1228.16 499.403C1230.04 499.403 1232.11 499.117 1233.77 500.305C1246.36 509.239 1260.02 507.64 1272.88 507.722C1307.21 507.968 1341.47 513.992 1372.05 511.697V511.779ZM93.7996 248.319C74.2084 286.841 52.7868 319.87 27.8032 347.081C48.2601 350.482 67.9749 351.548 87.6897 352.859C92.3154 353.187 93.8243 349.499 93.8243 342.614C93.7996 312.207 93.8243 281.759 93.8243 248.319H93.7996ZM56.6952 380.398C56.6952 380.807 56.6952 381.217 56.6952 381.627C46.0338 381.627 35.3478 381.258 24.6864 381.75C15.9793 382.16 16.5235 392.856 16.474 403.101C16.4245 413.714 19.4918 418.509 25.6511 418.017C31.9094 417.525 38.143 416.542 44.4012 415.845C56.621 414.452 69.2117 415.19 80.4914 421.009C92.7112 427.279 93.5027 429.041 93.6264 407.936C93.6264 404.822 93.4532 401.666 93.6511 398.593C94.5416 385.356 91.4001 379.496 83.0145 380.234C74.2579 381.053 65.4518 380.398 56.6457 380.398H56.6952ZM133.897 417.116C136.47 415.558 139.364 415.517 140.972 418.878C143.989 425.271 147.304 423.959 151.039 421.91C159.079 417.444 167.415 415.272 175.875 414.903C181.49 414.698 182.281 408.551 183.221 401.625C184.433 392.815 180.797 391.462 177.037 389.167C162.888 380.603 147.923 381.627 133.303 378.513C129.568 377.693 125.116 376.382 123.359 383.594C121.207 392.405 121.084 402.363 123.458 410.928C125.239 417.362 129.37 419.943 133.897 417.075V417.116ZM616.502 390.438C616.601 400.847 617.862 405.805 626.223 406.215C638.492 406.871 652.691 394.741 663.13 416.501C664.416 419.165 668.646 421.91 670.08 415.026C671.416 408.469 670.328 402.568 665.875 399.904C652.864 392.118 639.877 384.291 626.817 376.791C619.371 372.53 616.056 377.652 616.502 390.397V390.438Z" fill="url(#paint0_linear_459_1327)"/>
<defs>
<linearGradient id="paint0_linear_459_1327" x1="731.176" y1="0.873047" x2="731.176" y2="530.712" gradientUnits="userSpaceOnUse">
<stop stop-color="white"/>
<stop offset="1" stop-color="white" stop-opacity="0"/>
</linearGradient>
</defs>
</svg>
